# xmcd
#
# Track frame offsets: 
#        150
#        17222
#        34935
#        49737
#        67890
#        81980
#        95780
#        116685
#        137305
#        150937
#        162032
#        178292
#        200509
#        213770
#        231447
#        245042
#        259695
#        269247
#
# Disc length: 3826 seconds
#
# Revision: 3
# Processed by: cddbd v1.4PL0 Copyright (c) Steve Scherf et al.
# Submitted via: ExactAudioCopy v0.90b3
#
DISCID=020ef012
DTITLE=Merle Haggard - (Motorcycle Cowboy) Live At Billy Bob's Texas
DYEAR=1999
DGENRE=Country
TTITLE0=Misery and Gin
TTITLE1=I Think I'll Just Stay Here And Drink
TTITLE2=Working Man Blues
TTITLE3=Silver Wings
TTITLE4=Swinging Doors
TTITLE5=That's The Way Love Goes
TTITLE6=The Bottle Let Me Down
TTITLE7=Ramblin' Fever
TTITLE8=The Emptiest Arms In The World
TTITLE9=Mama Tried
TTITLE10=Hungry Eyes
TTITLE11=Motorcycle Cowboy/Blue Yodel #13
TTITLE12=If We Make It Through December
TTITLE13=Are The Good Times Realy Over
TTITLE14=Okie From Muskogee
TTITLE15=Big City
TTITLE16=Ida Red
TTITLE17=Today I Started Loving You Again
EXTD=
EXTT0=
EXTT1=
EXTT2=
EXTT3=
EXTT4=
EXTT5=
EXTT6=
EXTT7=
EXTT8=
EXTT9=
EXTT10=
EXTT11=
EXTT12=
EXTT13=
EXTT14=
EXTT15=
EXTT16=
EXTT17=
PLAYORDER=
